<svg xmlns="http://www.w3.org/2000/svg" viewBox="0 0 10.76 24"><defs><style>.cls-1{fill:#fff;}</style></defs><title>mongodb</title><g id="Layer_2" data-name="Layer 2"><g id="Layer_1-2" data-name="Layer 1"><path class="cls-1" d="M10.56,9.52C9.3,4,6.32,2.13,6,1.43A8.93,8.93,0,0,1,5.27,0a.09.09,0,0,0,0,.05h0V.12h0V.17h0v0h0v0h0v0h0V.34h0v0h0v0h0v0h0v0h0v0h0v0h0v0h0v0h0v0H5v0H4.76l0,0h0l0,0s0,0,0,0h0l0,0h0l-.08.06h0l-.18.16h0q-.25.22-.6.57h0A13.77,13.77,0,0,0,0,11.16a11,11,0,0,0,0,1.15H0a10.8,10.8,0,0,0,1.43,4.75h0a11.85,11.85,0,0,0,.92,1.41h0A12.87,12.87,0,0,0,4.89,21a8.33,8.33,0,0,1,.4,2.77l.64.22A12.19,12.19,0,0,1,6,21.48a1.61,1.61,0,0,1,.35-.66c.11-.08.42-.31.8-.65l0-.05A11.41,11.41,0,0,0,10.56,9.52Z"/></g></g></svg>