<svg xmlns="http://www.w3.org/2000/svg" viewBox="0 0 65.42 63.88"><defs><style>.cls-1{fill:none;stroke:#fff;stroke-miterlimit:10;stroke-width:1.42px;}</style></defs><title>github</title><g id="Layer_2" data-name="Layer 2"><g id="Layer_1-2" data-name="Layer 1"><path class="cls-1" d="M32.71.71a32,32,0,0,0-10.1,62.4c1.6.3,2.2-.7,2.2-1.5v-6c-8.9,1.9-10.8-3.8-10.8-3.8-1.5-3.7-3.6-4.7-3.6-4.7-2.9-2,.2-1.9.2-1.9,3.2.2,4.9,3.3,4.9,3.3,2.9,4.9,7.5,3.5,9.3,2.7a6.93,6.93,0,0,1,2-4.3c-7.1-.8-14.6-3.6-14.6-15.8a12.73,12.73,0,0,1,3.3-8.6,12,12,0,0,1,.3-8.5s2.7-.9,8.8,3.3a30.87,30.87,0,0,1,8-1.1,30.29,30.29,0,0,1,8,1.1c6.1-4.1,8.8-3.3,8.8-3.3a12,12,0,0,1,.3,8.5,12.1,12.1,0,0,1,3.3,8.6c0,12.3-7.5,15-14.6,15.8a7.75,7.75,0,0,1,2.2,5.9v8.8c0,.9.6,1.8,2.2,1.5A32,32,0,0,0,32.71.71Z"/></g></g></svg>