<svg xmlns="http://www.w3.org/2000/svg" viewBox="0 0 40 47.63"><defs><style>.cls-1{fill:#fff;}</style></defs><title>menu</title><g id="Layer_2" data-name="Layer 2"><g id="Layer_1-2" data-name="Layer 1"><path class="cls-1" d="M4.75,8.31C11.57.78,19.45-3.31,25.36,3.38a6.17,6.17,0,0,1,4.09,1.68c2.43,2.28,2.8,6.56,1.69,10v3a3.85,3.85,0,0,1,1.46,2.48,7,7,0,0,1,.11,2.14,5.9,5.9,0,0,1-.55,2,2.62,2.62,0,0,1-1.94,1.55c-.85.91-1.68,1.88-2.43,2.81a28.8,28.8,0,0,0-2,2.8,1.53,1.53,0,0,0-.12,1.48c.06.23.13.46.18.72,1.49.32,2.84.58,4.05.81C37.61,36.24,40,36.69,40,46.7a.93.93,0,0,1-.93.93H.93A.93.93,0,0,1,0,46.7c0-10,2.38-10.46,10.09-11.9,1.22-.23,2.58-.49,4.08-.81.05-.2.12-.38.18-.57a1.57,1.57,0,0,0-.15-1.62,28.8,28.8,0,0,0-2-2.8c-.75-.93-1.58-1.91-2.43-2.81a2.62,2.62,0,0,1-1.94-1.55,5.9,5.9,0,0,1-.55-2,7.62,7.62,0,0,1,.11-2.14A3.83,3.83,0,0,1,8.84,18l-1-.6c-.27-3,.51-8.1-3.1-9.08ZM29.3,14.22a9.35,9.35,0,0,0-.94-3.1A13,13,0,0,0,25.85,9l-.12-.09c-.23-.16-.46-.33-.7-.47-3.65,2.36-5.42,1.81-8.36,2.3-2.67.44-4.83,1.43-6,3.24v4.61a.92.92,0,0,1-.71.9c-.37.11-.65.66-.79,1.36a5,5,0,0,0-.08,1.6,3.67,3.67,0,0,0,.35,1.36c.18.34.4.57.65.57h.06a.94.94,0,0,1,.68.29c1,1,1.94,2.13,2.79,3.2a28.43,28.43,0,0,1,2.12,3A3.11,3.11,0,0,1,16.08,34a2.43,2.43,0,0,0-.17.72.93.93,0,0,1-.79.92c-1.78.4-3.33.69-4.69.94C4.13,37.79,2,38.18,1.86,45.77h36.3c-.15-7.59-2.27-8-8.57-9.17-1.38-.25-3-.55-4.77-1a.91.91,0,0,1-.71-.9,3.28,3.28,0,0,0-.18-1,3.07,3.07,0,0,1,.32-2.93,30,30,0,0,1,2.12-3c.85-1.07,1.81-2.18,2.79-3.19a.87.87,0,0,1,.73-.29h0c.26,0,.48-.23.65-.57a3.49,3.49,0,0,0,.36-1.36,5.33,5.33,0,0,0-.08-1.6c-.15-.71-.42-1.27-.81-1.37a.93.93,0,0,1-.69-.9V14.23Z"/></g></g></svg>