<svg xmlns="http://www.w3.org/2000/svg" width="64" height="64" shape-rendering="geometricPrecision" text-rendering="geometricPrecision" image-rendering="optimizeQuality" fill-rule="evenodd" clip-rule="evenodd" viewBox="0 0 640 640"><path fill-rule="nonzero" d="M391.245 176.199l7.287-32.126c.201-.945 1.075-1.56 1.997-1.571v-.036h87.414c1.134 0 2.055.922 2.055 2.055 0 .248-.023.496-.106.72l-50.245 237.264-.059.295-.094.425-1.217 5.882h.012l-1.016 5.315-.012.06c-1.5 8.255-2.22 14.031-2.22 17.315V412.14c.012 2.208.307 4.228.85 5.952l.331.945a11.38 11.38 0 0 0 1.925 3.319l.13.13.047.059.922.874 1.134.897.023.012c1.63 1.11 3.473 1.701 5.48 1.701h.107l.106.012c5.563-.036 12.048-1.937 19.394-5.646l3.791-2.043c6.532-3.72 13.737-8.811 21.509-15.248l.011-.012.048-.036.047-.035.07-.035.083-.06a152.01 152.01 0 0 0 7.5-6.661 169.425 169.425 0 0 0 7.406-7.441l.035-.024c12.402-13.252 23.635-29.516 33.615-48.59 6.933-13.253 12.142-27.131 15.59-41.612 3.461-14.48 5.198-29.622 5.198-45.413v-.378h.011c-.011-12.97-1.287-25.654-3.744-37.95h-.011l-1.323-6.059v-.023a180.784 180.784 0 0 0-9.815-29.67l-.071-.154a170.156 170.156 0 0 0-4.441-9.52l-.024-.059c-1.524-3.047-3.2-6.094-4.937-9.094-8.941-15.343-20.173-29.138-33.555-41.386l-.13-.119-.012-.011a179.888 179.888 0 0 0-8.138-6.898 171.903 171.903 0 0 0-8.67-6.473c-15.271-10.7-32.905-19.535-52.76-26.433l-.213-.083-.189-.059h-.011a213.793 213.793 0 0 0-11.847-3.744 246.26 246.26 0 0 0-12.272-3.189c-21.319-4.937-44.575-7.405-69.627-7.405v-.012c-17.929 0-35.126 1.18-51.567 3.52-16.382 2.326-32.032 5.846-46.914 10.5-14.918 4.653-28.938 10.346-42.024 17.02l-.236.106c-12.97 6.638-25.076 14.291-36.237 22.937l-.106.083-.154.141a200.311 200.311 0 0 0-9.083 7.382 200.026 200.026 0 0 0-8.811 8.032c-14.658 14.126-27.461 30.45-38.34 48.898l-.153.26a277.135 277.135 0 0 0-5.397 9.484 256.206 256.206 0 0 0-5.044 9.816c-8.291 16.996-14.953 35.291-19.949 54.78v.012a320.66 320.66 0 0 0-7.949 41.209 336.93 336.93 0 0 0-2.61 42.024h-.012c0 18.815 1.89 36.874 5.634 54.095 3.756 17.22 9.39 33.638 16.878 49.17l.012.024h.012l.07.153.036.106a212.493 212.493 0 0 0 6.626 12.674 208.548 208.548 0 0 0 7.489 12.213c13.5 20.362 30.579 38.114 51.095 53.209l.224.165.083.071c3.898 2.882 7.984 5.74 12.224 8.457a244.845 244.845 0 0 0 13.028 7.795c22.89 12.72 48.957 22.276 78.131 28.63 20.315 4.43 41.953 7.11 64.843 8.008 22.902.898 47.221.024 72.887-2.61 20.303-2.433 39.083-5.953 56.257-10.547 17.197-4.607 32.811-10.3 46.855-17.055l.023-.012.118-.06.024-.011a204.72 204.72 0 0 0 11.54-6.036 196.3 196.3 0 0 0 11.043-6.65c18.437-11.929 34.69-26.728 48.71-44.35.389-.496 1.003-.756 1.605-.756v-.024H640c1.134 0 2.055.921 2.055 2.055 0 .437-.13.886-.366 1.217a237.088 237.088 0 0 1-4.96 9.661 232.158 232.158 0 0 1-5.47 9.567c-9.696 16.064-21.283 30.863-34.63 44.304A249.585 249.585 0 0 1 566.322 580c-10.855 7.854-22.548 15.012-35.02 21.449l-.225.118c-12.366 6.33-25.524 11.906-39.33 16.713-13.95 4.842-28.643 8.964-44.033 12.319-15.402 3.33-31.547 5.846-48.367 7.5l-.177.023c-16.76 1.63-34.229 2.457-52.359 2.457h-.543v-.012c-27.118-.023-52.938-1.83-77.351-5.386a434.368 434.368 0 0 1-11.882-1.89c-20.115-3.472-39.308-8.208-57.497-14.173l-.213-.07a363.54 363.54 0 0 1-17.964-6.402 338.834 338.834 0 0 1-17.15-7.158c-28.678-12.874-53.8-29.055-75.32-48.437l-.036-.048c-14.905-13.488-28.063-28.311-39.354-44.422-11.304-16.11-20.835-33.59-28.524-52.382-7.69-18.744-13.465-38.469-17.292-59.127-3.815-20.67-5.74-42.343-5.74-65.02v-.425h.012c.023-23.576 2.008-46.418 5.94-68.399l.013-.024a363.101 363.101 0 0 1 2.078-10.689c3.839-18.236 9.048-35.941 15.65-53.055 7.925-20.528 17.551-39.745 28.878-57.592A303.82 303.82 0 0 1 89.812 96.25l.036-.024c14.846-15.19 31.346-28.713 49.43-40.548 18.082-11.835 37.842-22.04 59.22-30.567l.355-.142c5.905-2.362 12-4.594 18.224-6.673l.048-.012c6.342-2.114 12.579-4.016 18.685-5.67C268.267 3.805 303.004-.59 339.902-.59c21.024 0 41.245 1.547 60.627 4.63 19.382 3.083 37.914 7.748 55.548 13.937h.011l.201.07.225.107a319.807 319.807 0 0 1 14.22 5.374l.071.036a272.07 272.07 0 0 1 13.831 6.094c23.268 11.032 43.997 24.898 61.997 41.552l.012-.012c12.578 11.54 23.693 24.213 33.319 37.973 9.602 13.725 17.74 28.548 24.39 44.386 6.614 15.863 11.599 32.564 14.906 50.033 3.295 17.456 4.96 35.8 4.96 54.921 0 14.906-1.358 29.67-4.027 44.28-2.67 14.552-6.709 29.009-12.071 43.348l-.071.189a257.253 257.253 0 0 1-4.725 11.834 238.013 238.013 0 0 1-5.303 11.516c-9.531 19.37-21.532 37.288-35.847 53.623l-.118.142a223.429 223.429 0 0 1-8.54 9.271c-2.988 3.071-6 6.024-8.964 8.753-15.709 14.468-33.32 26.504-52.678 36.083l-.283.13-.024.011a187.015 187.015 0 0 1-11.48 5.138 201.752 201.752 0 0 1-11.717 4.382l-.248.083c-20.15 6.732-41.386 10.11-63.591 10.11v.012c-9.095 0-17.221-.78-24.32-2.327-7.145-1.559-13.334-3.957-18.508-7.134l-.2-.118a42.064 42.064 0 0 1-4.182-2.882l-.047-.047a44.577 44.577 0 0 1-3.72-3.307l-.248-.295c-5.174-5.292-9-12.06-11.493-20.174-9.023 8.551-18.72 15.603-28.937 21.177m79.288-300.937l1.181-5.173 7.193-31.69h87.415l-50.327 237.559c-.91 4.3-1.713 8.138-2.34 11.598v.024c-1.582 8.61-2.302 14.646-2.302 18.118 0 5.09 1.252 9.154 3.744 11.989 2.598 2.822 5.646 4.287 9.154 4.287 11.87 0 27.366-7.795 46.252-23.398 18.768-15.496 35.28-36.756 49.3-63.544 14.02-26.8 21.024-56.08 21.024-87.97 0-26.457-4.973-51.449-15.036-74.859-10.063-23.41-24.65-43.642-43.536-60.945-18.992-17.186-42.52-30.639-70.442-40.37-27.933-9.722-59.587-14.588-94.879-14.588-36.06 0-69.071 4.748-99.036 14.138-30.072 9.39-56.422 22.843-79.159 40.37-22.725 17.529-41.717 39.238-56.989 65.128-13.453 22.512-23.74 47.492-30.756 74.859-7.122 27.366-10.63 55.288-10.63 83.776 0 37.997 7.582 72.71 22.736 104.14 15.036 31.547 37.087 57.898 65.918 79.158 28.725 21.378 63.544 36.52 104.482 45.461 40.82 8.93 86.942 10.737 138.403 5.421 40.82-4.866 75.415-14.138 103.797-27.815 28.383-13.689 52.466-32.906 72.143-57.662h70.56c-11.422 23.622-26.457 44.776-44.894 63.32-18.426 18.543-40.029 34.146-64.785 46.926-24.661 12.661-52.359 22.275-83.115 28.949-30.638 6.661-64.111 9.945-100.419 9.945-54.26 0-103.218-7.122-146.647-21.367-43.536-14.244-80.174-34.83-109.903-61.63-29.634-26.8-52.134-58.796-67.394-96.12C7.607 422.214.036 381.17.036 336.051c0-47.032 7.807-91.017 23.516-131.848 15.72-40.807 38.22-76.312 67.737-106.513 29.504-30.189 65.47-53.705 107.99-70.666 42.508-17.079 89.446-25.56 140.659-25.56 41.941 0 80.387 6.107 115.442 18.426 34.949 12.225 65.02 29.859 89.895 52.808 24.992 22.96 43.984 50.21 57.225 81.65 13.11 31.43 19.665 66.143 19.665 104.14 0 29.622-5.315 58.571-15.945 86.941-10.512 28.383-25.772 53.942-45.567 76.56-19.678 22.607-42.97 40.477-69.65 53.706-26.8 13.122-55.631 19.677-86.506 19.677-17.87 0-31.772-3.059-41.729-9.153-9.945-6-16.618-15.721-19.901-28.95-5.044 4.985-10.253 9.45-15.674 13.453-4.37 3.225-8.858 6.154-13.488 8.764a124.75 124.75 0 0 1-37.087 13.737c-24.981 4.972-49.182 2.598-72.592-7.004-23.41-9.626-42.296-25.784-56.764-48.52-14.469-22.725-21.71-50.765-21.71-84.132 0-34.7 7.465-68.729 22.383-102.32 14.93-33.579 36.071-61.063 63.556-82.536 27.473-21.378 58.572-32.115 93.285-32.115 38.598 0 67.276 14.115 85.867 42.367l1.523 2.41zM211.03 352.894c0 26.576 5.54 46.808 16.512 60.946 11.08 14.138 25.56 21.26 43.418 21.26 20.811 0 39.012-8.362 54.84-24.874a142.443 142.443 0 0 0 12.956-15.768 149.745 149.745 0 0 0 7.607-11.882c6.13-10.583 11.256-22.276 15.39-35.103 8.043-25.028 12.118-49.17 12.212-72.532v-.85c0-5.186-.236-10.158-.767-14.895-.673-5.893-1.796-11.445-3.307-16.653-2.823-9.378-6.886-17.634-12.32-24.768-5.433-7.004-11.87-12.32-19.559-16.052-7.582-3.614-16.287-5.421-25.996-5.421-19.335 0-36.863 7.571-52.477 22.725-15.46 14.905-27.237 34.347-35.705 58.252l-.012.012-.236.65c-8.363 24.19-12.556 49.17-12.556 74.954zm101.848 129.427c-11.22 6.083-23.197 10.406-35.882 12.945l-.272.048-.484.094-.153.036-.048.011c-3.437.65-6.921 1.193-10.37 1.56-3.413.377-6.933.626-10.488.732-17.717.508-35.044-2.717-51.934-9.65-11.894-4.89-22.677-11.457-32.28-19.654-9.59-8.197-18.083-18.094-25.43-29.622l-.011-.012-.142-.224a126.501 126.501 0 0 1-5.728-10.028l-.047-.118c-1.748-3.437-3.378-6.969-4.808-10.536-7.523-18.685-11.315-40.158-11.315-64.312 0-17.55 1.902-34.89 5.658-52.028 3.768-17.161 9.425-34.229 16.913-51.142 7.5-16.926 16.619-32.363 27.308-46.24a206.666 206.666 0 0 1 36.85-37.088l.06-.035.106-.083.024-.012v-.012c3.91-3.023 7.89-5.858 11.893-8.433a158.51 158.51 0 0 1 12.343-7.17c21.496-11.184 44.87-16.818 70.123-16.818 38.552 0 67.465 13.925 86.481 41.67m-78.367 306.11v.011m-99.804-129.415c0 13.099 1.382 24.627 4.075 34.583l.059.248c2.681 9.768 6.697 18.06 11.953 24.84l.023.023.083.106a62.27 62.27 0 0 0 4.7 5.327l.072.083a53.118 53.118 0 0 0 4.984 4.417c8.953 6.992 19.607 10.524 31.95 10.524 10.098 0 19.57-2.043 28.429-6.071 8.882-4.051 17.197-10.146 24.921-18.201l.036-.024-.012-.011.106-.107.036-.035a144.333 144.333 0 0 0 6.271-7.087l.083-.07a127.188 127.188 0 0 0 5.776-7.548c9.661-13.488 17.398-29.197 23.173-47.056 4.028-12.555 7.063-24.933 9.083-37.04v-.023c2.008-12.06 3.024-23.977 3.024-35.705v-.603l.012-.094a122.085 122.085 0 0 0-1.052-15.898l-.366-2.54v-.2a95.486 95.486 0 0 0-2.586-11.599h-.012c-1.37-4.606-3.06-8.93-5.044-12.933a69.86 69.86 0 0 0-6.933-11.209l-.012-.012c-2.598-3.366-5.445-6.33-8.563-8.893a50.703 50.703 0 0 0-10.216-6.556l-.272-.13-.024-.011a45.555 45.555 0 0 0-3.106-1.311 52.13 52.13 0 0 0-3.248-1.123c-5.61-1.724-11.788-2.61-18.461-2.61-9.402 0-18.366 1.843-26.823 5.492m0 .012c-8.528 3.685-16.63 9.237-24.248 16.619l-.154.153c-7.56 7.335-14.292 15.862-20.15 25.465-5.905 9.685-10.949 20.551-15.142 32.516l-.106.307-.036.095c-1.11 3.271-2.208 6.661-3.2 10.098v.012a220.84 220.84 0 0 0-2.729 10.193c-4.228 17.457-6.354 35.327-6.354 53.587m72.119-149.057v.012m-24.26 16.63l-.142.142m.142-.142z"/></svg>