<svg xmlns="http://www.w3.org/2000/svg" viewBox="0 0 65.88 54.42"><defs><style>.cls-1{fill:none;stroke:#fff;stroke-miterlimit:10;stroke-width:1.42px;}</style></defs><title>code</title><g id="Layer_2" data-name="Layer 2"><g id="Layer_1-2" data-name="Layer 1"><g id="Layer_2-2" data-name="Layer 2"><g id="Layer_1-2-2" data-name="Layer 1-2"><path class="cls-1" d="M24.29,7.49h-9L.89,26.63l14.5,19h9l-14.5-19Zm17.2,0h9l14.5,19-14.5,19h-9l14.5-19C55.89,26.63,41.49,7.49,41.49,7.49ZM37.39.89l3.1.7a.91.91,0,0,1,.7,1.09h0L29.49,53a.93.93,0,0,1-1.1.7h0l-3.1-.7a.92.92,0,0,1-.7-1.1h0l11.8-50.3a.87.87,0,0,1,1-.66Z"/></g></g></g></g></svg>