<?xml version="1.0" encoding="utf-8"?>
<!-- Generator: Adobe Illustrator 22.0.0, SVG Export Plug-In . SVG Version: 6.00 Build 0)  -->
<svg version="1.1"
	 id="Layer_1" text-rendering="geometricPrecision" shape-rendering="geometricPrecision" image-rendering="optimizeQuality"
	 xmlns="http://www.w3.org/2000/svg" xmlns:xlink="http://www.w3.org/1999/xlink" x="0px" y="0px" viewBox="0 0 64 64"
	 style="enable-background:new 0 0 64 64;" xml:space="preserve">
<style type="text/css">
	.st0{fill:none;stroke:#000000;stroke-miterlimit:10;}
</style>
<path class="st0" d="M23.4,12.2h-9L0,31.3l14.5,19h9L9,31.3C9,31.3,23.4,12.2,23.4,12.2z M40.6,12.2h9l14.5,19l-14.5,19h-9l14.5-19
	C55,31.3,40.6,12.2,40.6,12.2z M36.5,5.6l3.1,0.7c0.5,0.1,0.8,0.6,0.7,1.1L28.6,57.7c-0.1,0.5-0.6,0.8-1.1,0.7l-3.1-0.7
	c-0.5-0.1-0.8-0.6-0.7-1.1L35.5,6.3C35.6,5.8,36.1,5.5,36.5,5.6z"/>
</svg>
