<svg xmlns="http://www.w3.org/2000/svg" viewBox="0 0 24 21.35"><defs><style>.cls-1{fill:#fff;}</style></defs><title>react</title><g id="Layer_2" data-name="Layer 2"><g id="Layer_1-2" data-name="Layer 1"><path class="cls-1" d="M12,8.54a2.14,2.14,0,1,0,2.14,2.14A2.14,2.14,0,0,0,12,8.54ZM6,14.93l-.47-.12C2,13.92,0,12.41,0,10.67S2,7.42,5.54,6.53L6,6.41l.13.47A23.77,23.77,0,0,0,7.5,10.46l.1.21-.1.22a24.07,24.07,0,0,0-1.36,3.57Zm-.69-7.3C2.64,8.38,1,9.53,1,10.67S2.64,13,5.32,13.72A24,24,0,0,1,6.5,10.67,23.88,23.88,0,0,1,5.32,7.63ZM18,14.93l-.13-.47a23.65,23.65,0,0,0-1.36-3.57l-.11-.22.11-.21a23.77,23.77,0,0,0,1.36-3.58L18,6.41l.48.12C22,7.42,24,8.93,24,10.67s-2,3.25-5.53,4.14Zm-.49-4.26a23.81,23.81,0,0,1,1.18,3.05C21.36,13,23,11.82,23,10.67s-1.64-2.29-4.32-3A23.88,23.88,0,0,1,17.5,10.67Zm-12.19-3-.13-.47c-1-3.48-.69-6,.82-6.85S9.86.45,12.36,3l.34.35-.34.35a22.91,22.91,0,0,0-2.42,3l-.14.19-.23,0a24.33,24.33,0,0,0-3.79.61ZM7.21,1a1.46,1.46,0,0,0-.71.17c-1,.58-1.17,2.57-.48,5.26a23.33,23.33,0,0,1,3.23-.5A24.08,24.08,0,0,1,11.3,3.37C9.74,1.85,8.26,1,7.21,1ZM16.8,21.35h0c-1.43,0-3.26-1.07-5.16-3L11.3,18l.34-.35a22.26,22.26,0,0,0,2.42-3l.14-.19.23,0a23.2,23.2,0,0,0,3.79-.61l.47-.12.13.47c1,3.49.69,6-.82,6.86A2.4,2.4,0,0,1,16.8,21.35ZM12.7,18c1.56,1.52,3,2.38,4.09,2.38h0a1.36,1.36,0,0,0,.71-.17c1-.57,1.17-2.57.48-5.25a26.79,26.79,0,0,1-3.23.5A25,25,0,0,1,12.7,18Zm6-10.35-.47-.12a24.33,24.33,0,0,0-3.79-.61l-.23,0-.14-.19a22.91,22.91,0,0,0-2.42-3l-.34-.35L11.64,3C14.14.45,16.51-.56,18,.3s1.81,3.37.82,6.85Zm-3.94-1.7a23.77,23.77,0,0,1,3.23.5c.69-2.69.51-4.68-.48-5.26s-2.85.31-4.8,2.21A24.08,24.08,0,0,1,14.75,5.92ZM7.21,21.35A2.41,2.41,0,0,1,6,21.05c-1.51-.88-1.81-3.37-.82-6.86l.13-.47.47.12a23.46,23.46,0,0,0,3.79.61l.23,0,.13.19a23.14,23.14,0,0,0,2.43,3l.34.35-.34.35C10.46,20.28,8.63,21.35,7.21,21.35ZM6,14.93c-.69,2.68-.51,4.68.48,5.25s2.84-.3,4.8-2.21a25,25,0,0,1-2.05-2.54A26.79,26.79,0,0,1,6,14.93Zm6,.62c-.82,0-1.67,0-2.52-.1l-.23,0-.14-.19q-.72-1-1.35-2.13c-.42-.72-.8-1.47-1.16-2.22l-.1-.22.1-.21C7,9.7,7.34,9,7.76,8.23S8.63,6.8,9.11,6.11l.14-.19.23,0a28.28,28.28,0,0,1,5,0l.23,0,.14.19a30.31,30.31,0,0,1,2.51,4.35l.1.21-.1.22a29.92,29.92,0,0,1-2.51,4.35l-.14.19-.23,0C13.67,15.52,12.82,15.55,12,15.55ZM9.8,14.47a29.37,29.37,0,0,0,4.4,0,29.25,29.25,0,0,0,2.19-3.8,28.14,28.14,0,0,0-2.19-3.8,29.37,29.37,0,0,0-4.4,0,28.14,28.14,0,0,0-2.19,3.8A29.25,29.25,0,0,0,9.8,14.47Z"/></g></g></svg>