<svg xmlns="http://www.w3.org/2000/svg" viewBox="0 0 40 30.17"><defs><style>.cls-1{fill:#fff;}</style></defs><title>robot-line</title><g id="Layer_2" data-name="Layer 2"><g id="Layer_1-2" data-name="Layer 1"><path class="cls-1" d="M2.1,14.45H4.69v-.79A5.12,5.12,0,0,1,9.81,8.55h9.65a.6.6,0,0,1-.07-.3V4.73a2.47,2.47,0,0,1-1.05-.61,2.44,2.44,0,0,1-.7-1.71,2.37,2.37,0,0,1,.7-1.7A2.46,2.46,0,0,1,20.05,0a2.34,2.34,0,0,1,1.7.71,2.42,2.42,0,0,1,.71,1.7,2.36,2.36,0,0,1-.71,1.71,2.28,2.28,0,0,1-1,.61V8.25a.78.78,0,0,1-.07.3h9.65a5.12,5.12,0,0,1,5.11,5.11v.79h2.51A2.1,2.1,0,0,1,40,16.54v6.25a2.08,2.08,0,0,1-2.09,2.08H35.4v.18a5.12,5.12,0,0,1-5.11,5.12H9.8a5.12,5.12,0,0,1-5.12-5.12v-.18H2.09a2.14,2.14,0,0,1-1.48-.61A2.1,2.1,0,0,1,0,22.79V16.54a2.11,2.11,0,0,1,.61-1.47,2.07,2.07,0,0,1,1.48-.62Zm13.33,9.6a.47.47,0,0,1,0-.76.77.77,0,0,1,.94,0,6,6,0,0,0,3.73,1.41,6.61,6.61,0,0,0,3.77-1.42.79.79,0,0,1,.94,0,.47.47,0,0,1-.05.76,8.06,8.06,0,0,1-4.65,1.69,7.58,7.58,0,0,1-4.67-1.7Zm-2.22-9.64a2.84,2.84,0,0,1,1,.2,2.74,2.74,0,0,1,.89.6,2.68,2.68,0,0,1,.6.9,2.88,2.88,0,0,1,0,2.11,2.78,2.78,0,0,1-.6.9,2.54,2.54,0,0,1-.9.6,2.77,2.77,0,0,1-3-.6,2.54,2.54,0,0,1-.6-.9,2.63,2.63,0,0,1-.21-1,2.71,2.71,0,0,1,.21-1.06,2.63,2.63,0,0,1,.6-.9,2.68,2.68,0,0,1,.9-.6,2.8,2.8,0,0,1,1-.2Zm.74,1a1.93,1.93,0,0,0-1.49,0,1.75,1.75,0,0,0-.62.42,1.91,1.91,0,0,0-.57,1.36,1.86,1.86,0,0,0,.15.75,1.75,1.75,0,0,0,.42.62,1.84,1.84,0,0,0,.62.42,1.93,1.93,0,0,0,1.49,0,1.75,1.75,0,0,0,.62-.42A1.84,1.84,0,0,0,15,17.9a1.93,1.93,0,0,0,0-1.49,1.75,1.75,0,0,0-.42-.62A1.84,1.84,0,0,0,14,15.37Zm13-1a2.86,2.86,0,0,1,1.06.2,2.74,2.74,0,0,1,.89.6,2.68,2.68,0,0,1,.6.9,2.88,2.88,0,0,1,0,2.11,2.78,2.78,0,0,1-.6.9,2.54,2.54,0,0,1-.9.6,2.76,2.76,0,0,1-2.11,0,2.63,2.63,0,0,1-.9-.6,2.54,2.54,0,0,1-.6-.9,2.63,2.63,0,0,1-.21-1,2.71,2.71,0,0,1,.21-1.06,2.63,2.63,0,0,1,.6-.9,2.68,2.68,0,0,1,.9-.6,2.8,2.8,0,0,1,1-.2Zm.75,1a1.93,1.93,0,0,0-1.49,0,1.75,1.75,0,0,0-.62.42A1.91,1.91,0,0,0,25,17.15a1.86,1.86,0,0,0,.15.75,1.75,1.75,0,0,0,.42.62,1.91,1.91,0,0,0,1.36.57,1.86,1.86,0,0,0,.75-.15,1.75,1.75,0,0,0,.62-.42,1.84,1.84,0,0,0,.42-.62,1.93,1.93,0,0,0,0-1.49,1.75,1.75,0,0,0-.42-.62A1.84,1.84,0,0,0,27.66,15.37ZM5.51,14.86V25a4.3,4.3,0,0,0,4.3,4.3H30.3A4.3,4.3,0,0,0,34.6,25V13.66a4.3,4.3,0,0,0-4.3-4.3H9.81a4.3,4.3,0,0,0-4.3,4.3Zm-.82.41H2.1A1.26,1.26,0,0,0,.83,16.54v6.25a1.29,1.29,0,0,0,.37.9,1.31,1.31,0,0,0,.9.37H4.69V15.28Zm33.26,0H35.44v8.78H38a1.28,1.28,0,0,0,.9-.38,1.25,1.25,0,0,0,.37-.9V16.53A1.26,1.26,0,0,0,38,15.26Z"/></g></g></svg>