<?xml version="1.0" encoding="utf-8"?>
<!-- Generator: Adobe Illustrator 22.0.0, SVG Export Plug-In . SVG Version: 6.00 Build 0)  -->
<svg version="1.1"
	 id="Layer_1" text-rendering="geometricPrecision" shape-rendering="geometricPrecision" image-rendering="optimizeQuality"
	 xmlns="http://www.w3.org/2000/svg" xmlns:xlink="http://www.w3.org/1999/xlink" x="0px" y="0px" viewBox="0 0 64 64"
	 style="enable-background:new 0 0 64 64;" xml:space="preserve">
<style type="text/css">
	.st0{fill:none;stroke:#000000;stroke-miterlimit:10;}
</style>
<path class="st0" d="M58.7,64H5.3V0h40.4l13,13.8L58.7,64L58.7,64z M54.4,59.4V16.9H42.5V4.1H9.7v55.3L54.4,59.4L54.4,59.4z
	 M38.9,16H13.4v-4.4h25.4C38.9,11.6,38.9,16,38.9,16z M50.8,26.7H13.4v-4.4h37.3L50.8,26.7L50.8,26.7z M29.9,36.1H13.4v-4.4h16.5
	C29.9,31.7,29.9,36.1,29.9,36.1z M51.6,45.1H13.4v-4.4h38.2C51.6,40.7,51.6,45.1,51.6,45.1z M51.6,54.5H13.4v-4.4h38.2V54.5z"/>
</svg>
